<?xml version="1.0" encoding="UTF-8"?>
<svg width="3300px" height="2200px" viewBox="0 0 3300 2200" version="1.1" xmlns="http://www.w3.org/2000/svg" xmlns:xlink="http://www.w3.org/1999/xlink">
    <title>xmark.pot.fill</title>
    <g id="Custom-Icon" stroke="none" stroke-width="1" fill="none" fill-rule="evenodd">
        <g id="xmark.pot.fill" transform="translate(0.000000, 235.000000)">
            <g transform="translate(0.000000, -235.000000)">
                <g id="Notes">
                    <rect id="artboard" fill="#FFFFFF" fill-rule="nonzero" x="0" y="0" width="3300" height="2200"></rect>
                    <line x1="263" y1="292" x2="3036" y2="292" id="Path" stroke="#000000" stroke-width="0.5"></line>
                    <text id="Weight/Scale-Variations" fill="#000000" fill-rule="nonzero" font-family="Helvetica" font-size="13" font-weight="normal">
                        <tspan x="263" y="322">Weight/Scale Variations</tspan>
                    </text>
                    <text id="Ultralight" fill="#000000" fill-rule="nonzero" font-family="Helvetica" font-size="13" font-weight="normal">
                        <tspan x="533.711" y="322">Ultralight</tspan>
                    </text>
                    <text id="Thin" fill="#000000" fill-rule="nonzero" font-family="Helvetica" font-size="13" font-weight="normal">
                        <tspan x="843.422" y="322">Thin</tspan>
                    </text>
                    <text id="Light" fill="#000000" fill-rule="nonzero" font-family="Helvetica" font-size="13" font-weight="normal">
                        <tspan x="1138.63" y="322">Light</tspan>
                    </text>
                    <text id="Regular" fill="#000000" fill-rule="nonzero" font-family="Helvetica" font-size="13" font-weight="normal">
                        <tspan x="1426.84" y="322">Regular</tspan>
                    </text>
                    <text id="Medium" fill="#000000" fill-rule="nonzero" font-family="Helvetica" font-size="13" font-weight="normal">
                        <tspan x="1723.06" y="322">Medium</tspan>
                    </text>
                    <text id="Semibold" fill="#000000" fill-rule="nonzero" font-family="Helvetica" font-size="13" font-weight="normal">
                        <tspan x="2015.77" y="322">Semibold</tspan>
                    </text>
                    <text id="Bold" fill="#000000" fill-rule="nonzero" font-family="Helvetica" font-size="13" font-weight="normal">
                        <tspan x="2326.48" y="322">Bold</tspan>
                    </text>
                    <text id="Heavy" fill="#000000" fill-rule="nonzero" font-family="Helvetica" font-size="13" font-weight="normal">
                        <tspan x="2618.19" y="322">Heavy</tspan>
                    </text>
                    <text id="Black" fill="#000000" fill-rule="nonzero" font-family="Helvetica" font-size="13" font-weight="normal">
                        <tspan x="2917.4" y="322">Black</tspan>
                    </text>
                    <line x1="263" y1="1903" x2="3036" y2="1903" id="Path" stroke="#000000" stroke-width="0.5"></line>
                    <g id="Group" transform="translate(264.367190, 1918.068400)" fill="#000000" fill-rule="nonzero">
                        <path d="M7.88086,15.761678 C8.96156,15.761678 9.97717667,15.5566 10.92771,15.146444 C11.8782433,14.7362873 12.7164767,14.166626 13.44241,13.43746 C14.1682767,12.7082933 14.7379433,11.86845 15.15141,10.91793 C15.56481,9.96741 15.77151,8.95504 15.77151,7.88082 C15.77151,6.8066 15.56481,5.79422667 15.15141,4.8437 C14.7379433,3.89316667 14.1666433,3.05333333 13.43751,2.3242 C12.70831,1.595 11.8684767,1.02533333 10.91801,0.6152 C9.96747667,0.205066667 8.95183667,0 7.87109,0 C6.79687,0 5.7845,0.205066667 4.83398,0.6152 C3.88346,1.02533333 3.04687333,1.595 2.32422,2.3242 C1.60156,3.05333333 1.03352333,3.89316667 0.62011,4.8437 C0.206703333,5.79422667 -8.8817842e-16,6.8066 -8.8817842e-16,7.88082 C-8.8817842e-16,8.95504 0.206703333,9.96741 0.62011,10.91793 C1.03352333,11.86845 1.60318667,12.7082933 2.3291,13.43746 C3.05501333,14.166626 3.89323,14.7362873 4.84375,15.146444 C5.79427,15.5566 6.80664,15.761678 7.88086,15.761678 Z M7.88086,14.277303 C6.99544,14.277303 6.16699,14.1129153 5.39551,13.78414 C4.62402333,13.4553667 3.94694,12.99801 3.36426,12.41207 C2.78157333,11.82613 2.32584333,11.14579 1.99707,10.37105 C1.66829,9.59631 1.5039,8.76623333 1.5039,7.88082 C1.5039,6.9954 1.66666333,6.16532 1.99219,5.39058 C2.31771,4.61586 2.77181,3.93553333 3.35449,3.3496 C3.93717,2.76366667 4.61425333,2.3063 5.38574,1.9775 C6.15722667,1.6487 6.98567667,1.4843 7.87109,1.4843 C8.76303667,1.4843 9.59474333,1.6487 10.36621,1.9775 C11.1376767,2.3063 11.8163767,2.76366667 12.40231,3.3496 C12.9882433,3.93553333 13.4472433,4.61586 13.77931,5.39058 C14.11131,6.16532 14.27731,6.9954 14.27731,7.88082 C14.27731,8.76623333 14.1129433,9.59631 13.78421,10.37105 C13.45541,11.14579 12.9996767,11.82613 12.41701,12.41207 C11.8343433,12.99801 11.15561,13.4553667 10.38081,13.78414 C9.60607667,14.1129153 8.77276,14.277303 7.88086,14.277303 Z M4.28711,7.88082 C4.28711,8.09566 4.35547,8.26981333 4.49219,8.40328 C4.62890333,8.53674667 4.81119333,8.60348 5.03906,8.60348 L7.14843,8.60348 L7.14843,10.72262 C7.14843,10.93746 7.21353667,11.1148667 7.34375,11.25484 C7.47395667,11.3948133 7.64973667,11.4648 7.87109,11.4648 C8.08593667,11.4648 8.26334667,11.3948133 8.40332,11.25484 C8.54329333,11.1148667 8.61328,10.93746 8.61328,10.72262 L8.61328,8.60348 L10.72261,8.60348 C10.94401,8.60348 11.1230767,8.53674667 11.25981,8.40328 C11.3964767,8.26981333 11.46481,8.09566 11.46481,7.88082 C11.46481,7.65946667 11.3964767,7.48043 11.25981,7.34371 C11.1230767,7.20699 10.94401,7.13863 10.72261,7.13863 L8.61328,7.13863 L8.61328,5.02926 C8.61328,4.80788667 8.54329333,4.62723333 8.40332,4.4873 C8.26334667,4.3473 8.08593667,4.2773 7.87109,4.2773 C7.64973667,4.2773 7.47395667,4.3473 7.34375,4.4873 C7.21353667,4.62723333 7.14843,4.80788667 7.14843,5.02926 L7.14843,7.13863 L5.03906,7.13863 C4.81119333,7.13863 4.62890333,7.20699 4.49219,7.34371 C4.35547,7.48043 4.28711,7.65946667 4.28711,7.88082 Z" id="Shape"></path>
                    </g>
                    <g id="Group" transform="translate(283.615050, 1915.988300)" fill="#000000" fill-rule="nonzero">
                        <path d="M9.96095,19.92186 C11.3216167,19.92186 12.60255,19.6614433 13.80375,19.14061 C15.0048833,18.6197767 16.06445,17.9003744 16.98245,16.9824031 C17.9003833,16.0644344 18.6197833,15.0048633 19.14065,13.80369 C19.66145,12.6025167 19.92185,11.3215933 19.92185,9.96092 C19.92185,8.60024 19.66145,7.3193 19.14065,6.1181 C18.6197833,4.91696667 17.9003833,3.8574 16.98245,2.9394 C16.06445,2.02146667 15.00325,1.30206667 13.79885,0.7812 C12.5943833,0.2604 11.3118167,0 9.95115,0 C8.59048333,0 7.30956667,0.2604 6.1084,0.7812 C4.90722667,1.30206667 3.84928333,2.02146667 2.93457,2.9394 C2.01985667,3.8574 1.30208333,4.91696667 0.78125,6.1181 C0.260416667,7.3193 8.8817842e-16,8.60024 8.8817842e-16,9.96092 C8.8817842e-16,11.3215933 0.260416667,12.6025167 0.78125,13.80369 C1.30208333,15.0048633 2.02148333,16.0644344 2.93945,16.9824031 C3.85741667,17.9003744 4.91698667,18.6197767 6.11816,19.14061 C7.31933333,19.6614433 8.60026333,19.92186 9.96095,19.92186 Z M9.96095,18.2617 C8.80859667,18.2617 7.73111667,18.0468563 6.72851,17.617169 C5.72591,17.1874813 4.84537667,16.593405 4.08691,15.83494 C3.32845,15.07648 2.73600333,14.1959467 2.30957,13.19334 C1.88313667,12.1907333 1.66992,11.11326 1.66992,9.96092 C1.66992,8.80857333 1.88313667,7.7311 2.30957,6.7285 C2.73600333,5.7259 3.32682333,4.84373333 4.08203,4.082 C4.83723667,3.32026667 5.71614333,2.7262 6.71875,2.2998 C7.72135,1.87333333 8.79881667,1.6601 9.95115,1.6601 C11.1034833,1.6601 12.18095,1.87333333 13.18355,2.2998 C14.18615,2.7262 15.0683167,3.32026667 15.83005,4.082 C16.5917833,4.84373333 17.1874833,5.7259 17.61715,6.7285 C18.0468833,7.7311 18.26175,8.80857333 18.26175,9.96092 C18.26175,11.11326 18.0485167,12.1907333 17.62205,13.19334 C17.19565,14.1959467 16.6032167,15.07648 15.84475,15.83494 C15.0862833,16.593405 14.2041167,17.1874813 13.19825,17.617169 C12.1923833,18.0468563 11.1132833,18.2617 9.96095,18.2617 Z M5.42968,9.96092 C5.42968,10.1952933 5.50780667,10.38735 5.66406,10.53709 C5.82030667,10.68683 6.02213,10.7617 6.26953,10.7617 L9.14065,10.7617 L9.14065,13.64256 C9.14065,13.8899533 9.21551667,14.09015 9.36525,14.24315 C9.51498333,14.3961433 9.70705,14.47264 9.94145,14.47264 C10.1887833,14.47264 10.38895,14.3961433 10.54195,14.24315 C10.69495,14.09015 10.77145,13.8899533 10.77145,13.64256 L10.77145,10.7617 L13.65235,10.7617 C13.89975,10.7617 14.09995,10.68683 14.25295,10.53709 C14.40595,10.38735 14.48245,10.1952933 14.48245,9.96092 C14.48245,9.71352 14.40595,9.51332333 14.25295,9.36033 C14.09995,9.20733667 13.89975,9.13084 13.65235,9.13084 L10.77145,9.13084 L10.77145,6.2597 C10.77145,6.00583333 10.69495,5.8024 10.54195,5.6494 C10.38895,5.4964 10.1887833,5.4199 9.94145,5.4199 C9.70705,5.4199 9.51498333,5.49803333 9.36525,5.6543 C9.21551667,5.81056667 9.14065,6.01236667 9.14065,6.2597 L9.14065,9.13084 L6.26953,9.13084 C6.01562333,9.13084 5.81217333,9.20733667 5.65918,9.36033 C5.50618,9.51332333 5.42968,9.71352 5.42968,9.96092 Z" id="Shape"></path>
                    </g>
                    <g id="Group" transform="translate(307.901860, 1913.224600)" fill="#000000" fill-rule="nonzero">
                        <path d="M12.71484,25.43946 C14.10804,25.43946 15.4378067,25.22299 16.70414,24.79005 C17.9704067,24.3571033 19.13414,23.7500067 20.19534,22.96876 C21.25654,22.1875067 22.1793733,21.2662827 22.96384,20.205088 C23.7483733,19.1438893 24.3571067,17.9785233 24.79004,16.70899 C25.2229733,15.4394633 25.43944,14.11134 25.43944,12.72462 C25.43944,11.3313933 25.2229733,10.0016533 24.79004,8.7354 C24.3571067,7.46906667 23.7483733,6.30533333 22.96384,5.2442 C22.1793733,4.183 21.25654,3.26013333 20.19534,2.4756 C19.13414,1.69106667 17.9687733,1.08233333 16.69924,0.6494 C15.4297067,0.216466667 14.0983067,0 12.70504,0 C11.31184,0 9.98210667,0.216466667 8.71584,0.6494 C7.44955333,1.08233333 6.28743667,1.69106667 5.22949,2.4756 C4.17155,3.26013333 3.25032667,4.183 2.46582,5.2442 C1.68131333,6.30533333 1.07421667,7.46906667 0.64453,8.7354 C0.214843333,10.0016533 0,11.3313933 0,12.72462 C0,14.11134 0.21647,15.4394633 0.64941,16.70899 C1.08235667,17.9785233 1.68945333,19.1438893 2.4707,20.205088 C3.25195333,21.2662827 4.17317667,22.1875067 5.23437,22.96876 C6.29557,23.7500067 7.45929333,24.3571033 8.72554,24.79005 C9.99187333,25.22299 11.32164,25.43946 12.71484,25.43946 Z M12.71484,23.62306 C11.51044,23.62306 10.3629733,23.43914 9.27244,23.0713 C8.18196,22.70346 7.18424667,22.18751 6.2793,21.52345 C5.37434667,20.8593853 4.58821333,20.0732513 3.9209,19.165048 C3.25358,18.2568427 2.73763,17.2574933 2.37305,16.167 C2.00846333,15.0765067 1.82617,13.9290467 1.82617,12.72462 C1.82617,11.51368 2.00846333,10.3629733 2.37305,9.2725 C2.73763,8.18196667 3.25195333,7.1826 3.91602,6.2744 C4.58008,5.3662 5.36458333,4.58006667 6.26953,3.916 C7.17447667,3.25193333 8.17221333,2.73763333 9.26274,2.3731 C10.3532067,2.0085 11.50064,1.8262 12.70504,1.8262 C13.9159733,1.8262 15.0667067,2.0085 16.15724,2.3731 C17.2477067,2.73763333 18.24704,3.25193333 19.15524,3.916 C20.06344,4.58006667 20.8495733,5.3662 21.51364,6.2744 C22.1777067,7.1826 22.6936733,8.18196667 23.06154,9.2725 C23.42934,10.3629733 23.6134125,11.51368 23.6134125,12.72462 C23.6197733,13.9290467 23.44074,15.0765067 23.07614,16.167 C22.7116067,17.2574933 22.1956733,18.2568427 21.52834,19.165048 C20.8610067,20.0732513 20.07324,20.8593853 19.16504,21.52345 C18.25684,22.18751 17.2575067,22.70346 16.16704,23.0713 C15.0765067,23.43914 13.9257733,23.62306 12.71484,23.62306 Z M6.94336,12.72462 C6.94336,12.9785267 7.02962333,13.1884867 7.20215,13.3545 C7.37467667,13.5205133 7.59440667,13.60352 7.86134,13.60352 L11.80664,13.60352 L11.80664,17.5586 C11.80664,17.8255267 11.88964,18.0452533 12.05564,18.21778 C12.22164,18.3903067 12.4348733,18.47657 12.69534,18.47657 C12.9622733,18.47657 13.1820067,18.3919367 13.35454,18.22267 C13.5270067,18.0533967 13.61324,17.83204 13.61324,17.5586 L13.61324,13.60352 L17.56834,13.60352 C17.8352733,13.60352 18.0533733,13.5205133 18.22264,13.3545 C18.3919067,13.1884867 18.47654,12.9785267 18.47654,12.72462 C18.47654,12.45118 18.3919067,12.2298267 18.22264,12.06056 C18.0533733,11.8912867 17.8352733,11.80665 17.56834,11.80665 L13.61324,11.80665 L13.61324,7.8613 C13.61324,7.5879 13.5270067,7.36493333 13.35454,7.1924 C13.1820067,7.01986667 12.9622733,6.9336 12.69534,6.9336 C12.4348733,6.9336 12.22164,7.01986667 12.05564,7.1924 C11.88964,7.36493333 11.80664,7.5879 11.80664,7.8613 L11.80664,11.80665 L7.86134,11.80665 C7.58789333,11.80665 7.36653333,11.8912867 7.19726,12.06056 C7.02799333,12.2298267 6.94336,12.45118 6.94336,12.72462 Z" id="Shape"></path>
                    </g>
                    <text id="Design-Variations" fill="#000000" fill-rule="nonzero" font-family="Helvetica" font-size="13" font-weight="normal">
                        <tspan x="263" y="1953">Design Variations</tspan>
                    </text>
                    <text id="Symbols-are-supported-in-up-to-nine-weights-and-three-scales." fill="#000000" fill-rule="nonzero" font-family="Helvetica" font-size="13" font-weight="normal">
                        <tspan x="263" y="1971">Symbols are supported in up to nine weights and three scales.</tspan>
                    </text>
                    <text id="For-optimal-layout-with-text-and-other-symbols,-vertically-align" fill="#000000" fill-rule="nonzero" font-family="Helvetica" font-size="13" font-weight="normal">
                        <tspan x="263" y="1989">For optimal layout with text and other symbols, vertically align</tspan>
                    </text>
                    <text id="symbols-with-the-adjacent-text." fill="#000000" fill-rule="nonzero" font-family="Helvetica" font-size="13" font-weight="normal">
                        <tspan x="263" y="2007">symbols with the adjacent text.</tspan>
                    </text>
                    <line x1="776" y1="1919" x2="776" y2="1933" id="Path" stroke="#00AEEF" stroke-width="0.5"></line>
                    <g id="Group" transform="translate(778.490230, 1918.732400)" fill="#000000" fill-rule="nonzero">
                        <path d="M0.82032,14.42385 C1.08073333,14.42385 1.28255667,14.3685115 1.42579,14.2578344 C1.56901667,14.1471575 1.68620333,13.9551 1.77735,13.681662 L3.03711,10.2344 L8.79887,10.2344 L10.05857,13.681662 C10.1497033,13.9551 10.2669033,14.1471575 10.41017,14.2578344 C10.55337,14.3685115 10.7519367,14.42385 11.00587,14.42385 C11.26627,14.42385 11.47297,14.3522354 11.62597,14.2090062 C11.77897,14.0657767 11.85547,13.8704643 11.85547,13.623069 C11.85547,13.473329 11.81967,13.297546 11.74807,13.09572 L7.16797,0.8985 C7.05078333,0.598966667 6.89128,0.374333333 6.68946,0.2246 C6.48763333,0.0748666667 6.23047,0 5.91797,0 C5.31250333,0 4.90234667,0.296233333 4.6875,0.8887 L0.10743,13.10549 C0.03581,13.3073133 -4.4408921e-16,13.4830947 -4.4408921e-16,13.632834 C-4.4408921e-16,13.88023 0.0732433333,14.073915 0.21973,14.2138891 C0.366216667,14.353863 0.566413333,14.42385 0.82032,14.42385 Z M3.51563,8.75002 L5.88868,2.1778 L5.9375,2.1778 L8.31057,8.75002 L3.51563,8.75002 Z" id="Shape"></path>
                    </g>
                    <line x1="793.197" y1="1919" x2="793.197" y2="1933" id="Path" stroke="#00AEEF" stroke-width="0.5"></line>
                    <text id="Margins" fill="#000000" fill-rule="nonzero" font-family="Helvetica" font-size="13" font-weight="normal">
                        <tspan x="776" y="1953">Margins</tspan>
                    </text>
                    <text id="Leading-and-trailing-margins-on-the-left-and-right-side-of-each-symbol" fill="#000000" fill-rule="nonzero" font-family="Helvetica" font-size="13" font-weight="normal">
                        <tspan x="776" y="1971">Leading and trailing margins on the left and right side of each symbol</tspan>
                    </text>
                    <text id="can-be-adjusted-by-modifying-the-x-location-of-the-margin-guidelines." fill="#000000" fill-rule="nonzero" font-family="Helvetica" font-size="13" font-weight="normal">
                        <tspan x="776" y="1989">can be adjusted by modifying the x-location of the margin guidelines.</tspan>
                    </text>
                    <text id="Modifications-are-automatically-applied-proportionally-to-all" fill="#000000" fill-rule="nonzero" font-family="Helvetica" font-size="13" font-weight="normal">
                        <tspan x="776" y="2007">Modifications are automatically applied proportionally to all</tspan>
                    </text>
                    <text id="scales-and-weights." fill="#000000" fill-rule="nonzero" font-family="Helvetica" font-size="13" font-weight="normal">
                        <tspan x="776" y="2025">scales and weights.</tspan>
                    </text>
                    <g id="Group" transform="translate(1291.246849, 1914.517550)" fill="#000000" fill-rule="nonzero">
                        <path d="M0.594951479,20.3476805 L2.29417148,22.0566705 C2.72385815,22.4928705 3.17795815,22.6946938 3.65647148,22.6621405 C4.13498481,22.6295872 4.60536148,22.3561505 5.06760148,21.8418305 L15.7609515,10.0547205 L14.7941515,9.07815049 L4.17893148,20.7578405 C4.00315148,20.9596605 3.82574148,21.0735938 3.64670148,21.0996405 C3.46766815,21.1256805 3.26096481,21.0215138 3.02659148,20.7871405 L1.85471148,19.6250305 C1.62033815,19.3906545 1.51780148,19.1839482 1.54710148,19.0049115 C1.57639481,18.8258748 1.69195148,18.6452108 1.89377148,18.4629193 L13.3683515,7.66215049 L12.3918515,6.69535049 L0.800031479,17.5840125 C0.305238146,18.0397418 0.039938146,18.5052368 0.00413147929,18.9804975 C-0.0316751874,19.4557595 0.165264813,19.9114872 0.594951479,20.3476805 Z M7.01096148,2.15435049 C6.80262815,2.35615049 6.68544148,2.58725049 6.65940148,2.84765049 C6.63336148,3.10811716 6.67893481,3.33598382 6.79612148,3.53125049 C6.91330815,3.71358382 7.08420481,3.85031716 7.30881148,3.94145049 C7.53342481,4.03258382 7.80850481,4.03908382 8.13405148,3.96095049 C8.86318481,3.79168382 9.60211815,3.72171716 10.3508515,3.75105049 C11.0995181,3.78031716 11.8319181,4.02931716 12.5480515,4.49805049 L11.9621515,5.95315049 C11.7928848,6.36981716 11.7456848,6.73278382 11.8205515,7.04205049 C11.8954181,7.35125049 12.0663181,7.64258382 12.3332515,7.91605049 L14.6281515,10.2305005 C14.8690181,10.4778938 15.1033848,10.6211205 15.3312515,10.6601805 C15.5591181,10.6992472 15.8130181,10.6927372 16.0929515,10.6406505 L17.1574515,10.4453405 L17.8215515,11.1191705 L17.7824515,11.6758105 C17.7629181,11.9232038 17.7938515,12.1510672 17.8752515,12.3594005 C17.9565848,12.5677338 18.1177181,12.7923438 18.3586515,13.0332305 L19.1203515,13.7754205 C19.3612181,14.0163072 19.6232515,14.1416338 19.9064515,14.1514005 C20.1896515,14.1611605 20.4484515,14.0488538 20.6828515,13.8144805 L23.5929515,10.8945605 C23.8273515,10.6601872 23.9412848,10.4046538 23.9347515,10.1279605 C23.9282848,9.85126716 23.8045848,9.59247716 23.5636515,9.35159049 L22.7922515,8.58987049 C22.5578515,8.34899049 22.3381181,8.18461716 22.1330515,8.09675049 C21.9279848,8.00881716 21.7049848,7.97461716 21.4640515,7.99415049 L20.8879515,8.04295049 L20.2433515,7.40825049 L20.4875515,6.28515049 C20.5526181,6.00521716 20.5395848,5.74318382 20.4484515,5.49905049 C20.3573181,5.25491716 20.1652515,4.98635049 19.8722515,4.69335049 L17.6750515,2.50585049 C16.8417181,1.67905049 15.9546515,1.05895049 15.0138515,0.64555049 C14.0731181,0.23215049 13.1258515,0.0173171567 12.1720515,0.00105049002 C11.2183181,-0.0152828433 10.3003515,0.15885049 9.41815148,0.52345049 C8.53601815,0.88805049 7.73362148,1.43168382 7.01096148,2.15435049 Z M8.50515148,2.52545049 C9.11061815,2.08271716 9.76001815,1.76695049 10.4533515,1.57815049 C11.1466848,1.38935049 11.8481848,1.32911716 12.5578515,1.39745049 C13.2674515,1.46585049 13.9559181,1.65628382 14.6232515,1.96875049 C15.2905848,2.28128382 15.9009515,2.71748382 16.4543515,3.27735049 L18.8859515,5.68945049 C19.0031515,5.80665049 19.0763848,5.92058382 19.1056515,6.03125049 C19.1349848,6.14191716 19.1301181,6.28191716 19.0910515,6.45125049 L18.7687515,7.93555049 L20.2726515,9.41995049 L21.2590515,9.36136049 C21.3827181,9.35484716 21.4771181,9.36298382 21.5422515,9.38577049 C21.6073181,9.40855716 21.6886848,9.46877716 21.7863515,9.56643049 L22.3625515,10.1426105 L19.9211515,12.5840105 L19.3449515,12.0078405 C19.2472848,11.9101872 19.1854181,11.8288072 19.1593515,11.7637005 C19.1333515,11.6985938 19.1236181,11.6009372 19.1301515,11.4707305 L19.1984515,10.4941705 L17.7043515,9.00979049 L16.1808515,9.26370049 C16.0181181,9.29625382 15.8895515,9.30113716 15.7951515,9.27835049 C15.7007515,9.25556382 15.5916848,9.18557716 15.4679515,9.06839049 L13.4660515,7.06645049 C13.3358515,6.94925049 13.2626181,6.83695049 13.2463515,6.72955049 C13.2300848,6.62208382 13.2609848,6.47721716 13.3390515,6.29495049 L14.2179515,4.20515049 C13.4367515,3.47595049 12.5578515,2.97138382 11.5812515,2.69145049 C10.6047181,2.41151716 9.60861815,2.42128382 8.59295148,2.72075049 C8.51488481,2.74028382 8.46445148,2.72561716 8.44165148,2.67675049 C8.41885148,2.62795049 8.44001815,2.57751716 8.50515148,2.52545049 Z" id="Shape"></path>
                    </g>
                    <text id="Exporting" fill="#000000" fill-rule="nonzero" font-family="Helvetica" font-size="13" font-weight="normal">
                        <tspan x="1289" y="1953">Exporting</tspan>
                    </text>
                    <text id="Symbols-should-be-outlined-when-exporting-to-ensure-the" fill="#000000" fill-rule="nonzero" font-family="Helvetica" font-size="13" font-weight="normal">
                        <tspan x="1289" y="1971">Symbols should be outlined when exporting to ensure the</tspan>
                    </text>
                    <text id="design-is-preserved-when-submitting-to-Xcode." fill="#000000" fill-rule="nonzero" font-family="Helvetica" font-size="13" font-weight="normal">
                        <tspan x="1289" y="1989">design is preserved when submitting to Xcode.</tspan>
                    </text>
                    <text id="template-version" fill="#000000" fill-rule="nonzero" font-family="Helvetica" font-size="13" font-weight="normal">
                        <tspan x="2952" y="1933">Template v.3.0</tspan>
                    </text>
                    <text id="Requires-Xcode-13-or-greater" fill="#000000" fill-rule="nonzero" font-family="Helvetica" font-size="13" font-weight="normal">
                        <tspan x="2865" y="1951">Requires Xcode 13 or greater</tspan>
                    </text>
                    <text id="descriptive-name" fill="#000000" fill-rule="nonzero" font-family="Helvetica" font-size="13" font-weight="normal">
                        <tspan x="2869" y="1969">Generated from xmark.bin.fill</tspan>
                    </text>
                    <text id="Typeset-at-100-points" fill="#000000" fill-rule="nonzero" font-family="Helvetica" font-size="13" font-weight="normal">
                        <tspan x="2912" y="1987">Typeset at 100 points</tspan>
                    </text>
                    <text id="Small" fill="#000000" fill-rule="nonzero" font-family="Helvetica" font-size="13" font-weight="normal">
                        <tspan x="263" y="726">Small</tspan>
                    </text>
                    <text id="Medium" fill="#000000" fill-rule="nonzero" font-family="Helvetica" font-size="13" font-weight="normal">
                        <tspan x="263" y="1156">Medium</tspan>
                    </text>
                    <text id="Large" fill="#000000" fill-rule="nonzero" font-family="Helvetica" font-size="13" font-weight="normal">
                        <tspan x="263" y="1586">Large</tspan>
                    </text>
                </g>
                <g id="Guides" transform="translate(263.000000, 625.041000)">
                    <g id="H-reference" transform="translate(76.993347, 0.500000)" fill="#27AAE1" fill-rule="nonzero">
                        <path d="M0,70.459 L2.644353,70.459 L28.334853,3.3264 L29.036753,3.3264 L29.036753,0 L27.129353,0 L0,70.459 Z M10.694853,45.9793 L45.988453,45.9793 L45.237753,43.7302 L11.444853,43.7302 L10.694853,45.9793 Z M54.125953,70.459 L56.770353,70.459 L29.644753,0 L28.439353,0 L28.439353,3.3264 L54.125953,70.459 Z" id="Shape"></path>
                    </g>
                    <line x1="0" y1="70.959" x2="2773" y2="70.959" id="Baseline-S" stroke="#27AAE1" stroke-width="0.5"></line>
                    <line x1="0" y1="0.5" x2="2773" y2="0.5" id="Capline-S" stroke="#27AAE1" stroke-width="0.5"></line>
                    <g id="H-reference" transform="translate(76.993347, 430.500000)" fill="#27AAE1" fill-rule="nonzero">
                        <path d="M0,70.459 L2.644353,70.459 L28.334853,3.3264 L29.036753,3.3264 L29.036753,0 L27.129353,0 L0,70.459 Z M10.694853,45.9793 L45.988453,45.9793 L45.237753,43.7302 L11.444853,43.7302 L10.694853,45.9793 Z M54.125953,70.459 L56.770353,70.459 L29.644753,0 L28.439353,0 L28.439353,3.3264 L54.125953,70.459 Z" id="Shape"></path>
                    </g>
                    <line x1="0" y1="500.959" x2="2773" y2="500.959" id="Baseline-M" stroke="#27AAE1" stroke-width="0.5"></line>
                    <line x1="0" y1="430.499" x2="2773" y2="430.499" id="Capline-M" stroke="#27AAE1" stroke-width="0.5"></line>
                    <g id="H-reference" transform="translate(76.993347, 860.500000)" fill="#27AAE1" fill-rule="nonzero">
                        <path d="M0,70.459 L2.644353,70.459 L28.334853,3.3264 L29.036753,3.3264 L29.036753,0 L27.129353,0 L0,70.459 Z M10.694853,45.9793 L45.988453,45.9793 L45.237753,43.7302 L11.444853,43.7302 L10.694853,45.9793 Z M54.125953,70.459 L56.770353,70.459 L29.644753,0 L28.439353,0 L28.439353,3.3264 L54.125953,70.459 Z" id="Shape"></path>
                    </g>
                    <line x1="0" y1="930.959" x2="2773" y2="930.959" id="Baseline-L" stroke="#27AAE1" stroke-width="0.5"></line>
                    <line x1="0" y1="860.499" x2="2773" y2="860.499" id="Capline-L" stroke="#27AAE1" stroke-width="0.5"></line>
                    <line x1="1116.33" y1="405.749" x2="1116.33" y2="525.079" id="left-margin-Regular-M" stroke="#00AEEF" stroke-width="0.5"></line>
                    <line x1="1257.36" y1="405.749" x2="1257.36" y2="525.079" id="right-margin-Regular-M" stroke="#00AEEF" stroke-width="0.5"></line>
                </g>
                <g id="Symbols" transform="translate(484.845000, 622.660200)" fill="#000000" fill-rule="nonzero">
                    <g id="Black-L" transform="translate(2366.599000, 836.541300)">
                        <path d="M47.2086,123.221 L116.71,123.221 C124.163333,123.221 129.653667,121.150967 133.181,117.0109 C136.708333,112.870833 139.069667,107.12096 140.265,99.76128 L149.003,44.865 L14.8939,44.865 L23.653,99.76128 C24.8491333,107.12356 27.2106,112.874067 30.7374,117.0128 C34.2642,121.1516 39.7546,123.221 47.2086,123.221 Z M12.4793,33.5992 L151.497,33.5992 C155.309667,33.5992 158.333,32.5121667 160.567,30.3381 C162.801,28.1640333 163.918,25.0339 163.918,20.9477 L163.918,12.6515 C163.918,8.5791 162.801,5.4524 160.567,3.2714 C158.333,1.09046667 155.309667,0 151.497,0 L12.4793,0 C8.7607,0 5.75116667,1.09046667 3.4507,3.2714 C1.15023333,5.4524 -3.55271368e-15,8.5791 -3.55271368e-15,12.6515 L-3.55271368e-15,20.9477 C-3.55271368e-15,25.0339 1.1364,28.1640333 3.4092,30.3381 C5.68206667,32.5121667 8.70543333,33.5992 12.4793,33.5992 Z" id="Shape"></path>
                    </g>
                    <g id="Heavy-L" transform="translate(2071.539000, 837.457500)">
                        <path d="M45.9755,121.3981 L114.631,121.3981 C121.763,121.3981 127.009,119.4433 130.369,115.5337 C133.729,111.624167 135.972667,106.146857 137.1,99.10177 L145.899,42.956 L14.6708,42.956 L23.4998,99.10177 C24.6312667,106.158923 26.8759667,111.639267 30.2339,115.5428 C33.5918333,119.446333 38.8390333,121.3981 45.9755,121.3981 Z M12.0055,32.4063 L148.639,32.4063 C152.367,32.4063 155.292667,31.3457333 157.416,29.2246 C159.538667,27.1034 160.6,24.0727 160.6,20.1325 L160.6,12.2738 C160.6,8.35346667 159.538667,5.32773333 157.416,3.1966 C155.292667,1.06553333 152.367,0 148.639,0 L12.0055,0 C8.3867,0 5.48106667,1.06553333 3.2886,3.1966 C1.0962,5.32773333 0,8.35346667 0,12.2738 L0,20.1325 C0,24.0727 1.07636667,27.1034 3.2291,29.2246 C5.38183333,31.3457333 8.3073,32.4063 12.0055,32.4063 Z" id="Shape"></path>
                    </g>
                    <g id="Bold-L" transform="translate(1776.689000, 838.603300)">
                        <path d="M44.6509,119.1229 L112.246,119.1229 C118.982,119.1229 123.933,117.304233 127.099,113.6669 C130.265,110.029567 132.37,104.884463 133.414,98.23159 L142.301,40.6076 L14.545,40.6076 L23.4694,98.23159 C24.5228,104.91293 26.6301667,110.065133 29.7915,113.6882 C32.9528333,117.311333 37.9059667,119.1229 44.6509,119.1229 Z M11.3806,31.0172 L145.532,31.0172 C149.124667,31.0172 151.914667,29.9938667 153.902,27.9472 C155.889333,25.9005333 156.883,23.0079667 156.883,19.2695 L156.883,11.7477 C156.883,8.03383333 155.889333,5.14743333 153.902,3.0885 C151.914667,1.0295 149.124667,0 145.532,0 L11.3806,0 C7.906,0 5.14056667,1.0295 3.0843,3.0885 C1.0281,5.14743333 0,8.03383333 0,11.7477 L0,19.2695 C0,23.0079667 1.00346667,25.9005333 3.0104,27.9472 C5.01726667,29.9938667 7.80733333,31.0172 11.3806,31.0172 Z" id="Shape"></path>
                    </g>
                    <g id="Semibold-L" transform="translate(1481.259000, 839.393200)">
                        <path d="M43.7377,117.5543 L110.603,117.5543 C117.064333,117.5543 121.811333,115.8295 124.844,112.3799 C127.876667,108.930233 129.886,104.014167 130.872,97.6317 L139.82,38.9885 L14.4583,38.9885 L23.4484,97.6317 C24.448,104.0539 26.4607,108.9799 29.4865,112.4097 C32.5123667,115.839433 37.2627667,117.5543 43.7377,117.5543 Z M10.9497,30.0595 L143.389,30.0595 C146.889,30.0595 149.586,29.0618667 151.48,27.0666 C153.374,25.0713333 154.321,22.274 154.321,18.6746 L154.321,11.3849 C154.321,7.8135 153.374,5.02316667 151.48,3.0139 C149.586,1.00463333 146.889,0 143.389,0 L10.9497,0 C7.57456667,0 4.90583333,1.00463333 2.9435,3.0139 C0.981166667,5.02316667 0,7.8135 0,11.3849 L0,18.6746 C0,22.274 0.953166667,25.0713333 2.8595,27.0666 C4.7659,29.0618667 7.46263333,30.0595 10.9497,30.0595 Z" id="Shape"></path>
                    </g>
                    <g id="Medium-L" transform="translate(1185.519000, 839.992200)">
                        <path d="M43.0453,116.365 L109.356,116.365 C115.610667,116.365 120.203333,114.711333 123.134,111.404 C126.065333,108.096667 128.002333,103.35426 128.945,97.17678 L137.939,37.7609 L14.3925,37.7609 L23.4325,97.17678 C24.3913,103.402527 26.3322333,108.157 29.2553,111.4402 C32.1783667,114.7234 36.7750333,116.365 43.0453,116.365 Z M10.6231,29.3333 L141.765,29.3333 C145.193667,29.3333 147.819667,28.3551333 149.643,26.3988 C151.466333,24.4424667 152.378,21.7173333 152.378,18.2234 L152.378,11.1099 C152.378,7.64643333 151.466333,4.9289 149.643,2.9573 C147.819667,0.985766667 145.193667,0 141.765,0 L10.6231,0 C7.3233,0 4.72783333,0.985766667 2.8367,2.9573 C0.945566667,4.9289 0,7.64643333 0,11.1099 L0,18.2234 C0,21.7173333 0.915066667,24.4424667 2.7452,26.3988 C4.57533333,28.3551333 7.2013,29.3333 10.6231,29.3333 Z" id="Shape"></path>
                    </g>
                    <g id="Regular-L" transform="translate(890.079000, 840.773400)">
                        <path d="M42.1421,114.8137 L107.731,114.8137 C113.714333,114.8137 118.105333,113.252833 120.904,110.1311 C123.703333,107.009367 125.545667,102.493503 126.431,96.58351 L135.486,36.1597 L14.3068,36.1597 L23.4118,96.58351 C24.3174,102.553037 26.1647,107.083767 28.9537,110.1757 C31.7427,113.2677 36.1388333,114.8137 42.1421,114.8137 Z M10.197,28.3862 L139.646,28.3862 C142.982667,28.3862 145.516333,27.4334333 147.247,25.5279 C148.977667,23.6223667 149.843,20.9914 149.843,17.635 L149.843,10.7512 C149.843,7.42853333 148.977667,4.806 147.247,2.8836 C145.516333,0.9612 142.982667,0 139.646,0 L10.197,0 C6.99553333,0 4.49566667,0.9612 2.6974,2.8836 C0.899133333,4.806 0,7.42853333 0,10.7512 L0,17.635 C0,20.9914 0.865333333,23.6223667 2.596,25.5279 C4.32673333,27.4334333 6.8604,28.3862 10.197,28.3862 Z" id="Shape"></path>
                    </g>
                    <g id="Light-L" transform="translate(593.379000, 841.635300)">
                        <path d="M42.532,113.1309 L107.32,113.1309 C113.03,113.1309 117.260667,111.621367 120.012,108.6023 C122.762667,105.583167 124.553667,101.26224 125.385,95.63952 L134.583,34.6411 L15.1892,34.6411 L24.4174,95.63952 C25.2819333,101.362773 27.0813333,105.7088 29.8156,108.6776 C32.5498667,111.646467 36.7886667,113.1309 42.532,113.1309 Z M9.5198,27.9963 L140.282,27.9963 C143.331333,27.9963 145.680333,27.0982667 147.329,25.3022 C148.977667,23.5061333 149.802,21.0667 149.802,17.9839 L149.802,10.0124 C149.802,6.94973333 148.977667,4.51533333 147.329,2.7092 C145.680333,0.903066667 143.331333,0 140.282,0 L9.5198,0 C6.55093333,0 4.22206667,0.903066667 2.5332,2.7092 C0.8444,4.51533333 0,6.94973333 0,10.0124 L0,17.9839 C0,21.0667 0.8243,23.5061333 2.4729,25.3022 C4.1215,27.0982667 6.47046667,27.9963 9.5198,27.9963 Z" id="Shape"></path>
                    </g>
                    <g id="Thin-L" transform="translate(296.698000, 842.775300)">
                        <path d="M43.0477,110.9052 L106.778,110.9052 C112.125333,110.9052 116.143,109.4635 118.831,106.5801 C121.519,103.6967 123.242333,99.63365 124.001,94.39095 L133.389,32.6325 L16.3563,32.6325 L25.7473,94.39095 C26.5575667,99.7885167 28.2936667,103.890267 30.9556,106.6962 C33.6174667,109.5022 37.6481667,110.9052 43.0477,110.9052 Z M8.6241,27.4805 L141.124,27.4805 C143.793333,27.4805 145.898,26.6548667 147.438,25.0036 C148.978,23.3522667 149.748,21.1661667 149.748,18.4453 L149.748,9.0352 C149.748,6.31633333 148.978,4.13076667 147.438,2.4785 C145.898,0.826166667 143.793333,0 141.124,0 L8.6241,0 C5.96283333,0 3.86016667,0.826166667 2.3161,2.4785 C0.772033333,4.13076667 0,6.31633333 0,9.0352 L0,18.4453 C0,21.1661667 0.770033333,23.3522667 2.3101,25.0036 C3.8501,26.6548667 5.95476667,27.4805 8.6241,27.4805 Z" id="Shape"></path>
                    </g>
                    <g id="Ultralight-L" transform="translate(0.000000, 843.359200)">
                        <path d="M43.3119,109.7653 L106.5,109.7653 C111.662,109.7653 115.570667,108.358333 118.226,105.5444 C120.881333,102.730533 122.57,98.7995467 123.292,93.75144 L132.777,31.6038 L16.9541,31.6038 L26.4285,93.75144 C27.2109667,98.9821467 28.9146,102.9588 31.5394,105.6814 C34.1642667,108.404 38.0884333,109.7653 43.3119,109.7653 Z M8.1653,27.2164 L141.555,27.2164 C144.029667,27.2164 146.009,26.4278 147.493,24.8506 C148.977667,23.2734667 149.72,21.2171333 149.72,18.6816 L149.72,8.5348 C149.72,5.992 148.977667,3.93383333 147.493,2.3603 C146.009,0.786766667 144.029667,0 141.555,0 L8.1653,0 C5.66163333,0 3.67483333,0.786766667 2.2049,2.3603 C0.734966667,3.93383333 0,5.992 0,8.5348 L0,18.6816 C0,21.2171333 0.7422,23.2734667 2.2266,24.8506 C3.71106667,26.4278 5.69063333,27.2164 8.1653,27.2164 Z" id="Shape"></path>
                    </g>
                    <g id="Black-M" transform="translate(2383.635900, 419.739500)">
                        <path d="M37.687,96.8033 L92.1521,96.8033 C98.1647667,96.8033 102.6061,95.1074433 105.4761,91.71573 C108.3461,88.3240367 110.269767,83.66154 111.2471,77.72824 L117.9841,36.1938 L11.8503,36.1938 L18.593,77.72824 C19.5696667,83.6609333 21.4930333,88.3232767 24.3631,91.71527 C27.2332333,95.10729 31.6745333,96.8033 37.687,96.8033 Z M9.9836,27.0032 L119.9131,27.0032 C122.9011,27.0032 125.302433,26.1457333 127.1171,24.4308 C128.932433,22.7158 129.8401,20.2312 129.8401,16.977 L129.8401,10.0262 C129.8401,6.77573333 128.932433,4.2921 127.1171,2.5753 C125.302433,0.858433333 122.9011,0 119.9131,0 L9.9836,0 C7.04846667,0 4.65076667,0.858433333 2.7905,2.5753 C0.930166667,4.2921 0,6.77573333 0,10.0262 L0,16.977 C0,20.2312 0.926466667,22.7158 2.7794,24.4308 C4.63233333,26.1457333 7.03373333,27.0032 9.9836,27.0032 Z" id="Shape"></path>
                    </g>
                    <g id="Heavy-M" transform="translate(2088.545900, 420.555700)">
                        <path d="M36.4457,95.1764 L90.1571,95.1764 C95.8817667,95.1764 100.099433,93.58849 102.8101,90.41267 C105.520767,87.2368433 107.3341,82.8228 108.2501,77.17054 L115.0331,34.4677 L11.5508,34.4677 L18.3504,77.17054 C19.2676667,82.8276933 21.0813333,87.24296 23.7914,90.41634 C26.5014667,93.5897133 30.7195667,95.1764 36.4457,95.1764 Z M9.583,25.873 L117.0611,25.873 C119.992433,25.873 122.3151,25.0363 124.0291,23.3629 C125.7431,21.6895667 126.6001,19.2845667 126.6001,16.1479 L126.6001,9.7251 C126.6001,6.59923333 125.7431,4.19693333 124.0291,2.5182 C122.3151,0.8394 119.992433,0 117.0611,0 L9.583,0 C6.72386667,0 4.41193333,0.8394 2.6472,2.5182 C0.8824,4.19693333 -8.8817842e-15,6.59923333 -8.8817842e-15,9.7251 L-8.8817842e-15,16.1479 C-8.8817842e-15,19.2845667 0.871566667,21.6895667 2.6147,23.3629 C4.35783333,25.0363 6.6806,25.873 9.583,25.873 Z" id="Shape"></path>
                    </g>
                    <g id="Bold-M" transform="translate(1793.645900, 421.468700)">
                        <path d="M35.0571,93.3566 L87.9251,93.3566 C93.3271,93.3566 97.2944333,91.8894167 99.8271,88.95505 C102.360433,86.0207033 104.050433,81.88459 104.8971,76.54671 L111.7321,32.5368 L11.2158,32.5368 L18.0791,76.54671 C18.9299,81.89563 20.6208,86.0345033 23.1518,88.96333 C25.6828667,91.8921767 29.6513,93.3566 35.0571,93.3566 Z M9.1348,24.6087 L113.8701,24.6087 C116.738767,24.6087 118.973767,23.7952667 120.5751,22.1684 C122.175767,20.5416 122.9761,18.2256 122.9761,15.2204 L122.9761,9.3883 C122.9761,6.4019 122.175767,4.09056667 120.5751,2.4543 C118.973767,0.8181 116.738767,0 113.8701,0 L9.1348,0 C6.3608,0 4.14483333,0.8181 2.4869,2.4543 C0.828966667,4.09056667 5.32907052e-15,6.4019 5.32907052e-15,9.3883 L5.32907052e-15,15.2204 C5.32907052e-15,18.2256 0.810166667,20.5416 2.4305,22.1684 C4.05076667,23.7952667 6.28553333,24.6087 9.1348,24.6087 Z" id="Shape"></path>
                    </g>
                    <g id="Semibold-M" transform="translate(1498.185900, 422.098100)">
                        <path d="M34.0998,92.102 L86.3862,92.102 C91.5661333,92.102 95.3611,90.7180633 97.7711,87.95019 C100.1811,85.1823167 101.7861,81.2378067 102.5861,76.11666 L109.4571,31.2056 L10.9848,31.2056 L17.892,76.11666 C18.697,81.2530933 20.3033,85.2014233 22.7109,87.96165 C25.1185,90.7218833 28.9148,92.102 34.0998,92.102 Z M8.8258,23.7371 L111.6711,23.7371 C114.495767,23.7371 116.669767,22.9397333 118.1931,21.345 C119.716433,19.7502667 120.4781,17.4956 120.4781,14.581 L120.4781,9.1561 C120.4781,6.26583333 119.716433,4.01723333 118.1931,2.4103 C116.669767,0.803433333 114.495767,0 111.6711,0 L8.8258,0 C6.11046667,0 3.96066667,0.803433333 2.3764,2.4103 C0.792133333,4.01723333 -8.8817842e-15,6.26583333 -8.8817842e-15,9.1561 L-8.8817842e-15,14.581 C-8.8817842e-15,17.4956 0.7678,19.7502667 2.3034,21.345 C3.839,22.9397333 6.01313333,23.7371 8.8258,23.7371 Z" id="Shape"></path>
                    </g>
                    <g id="Medium-M" transform="translate(1202.415900, 422.575400)">
                        <path d="M33.3739,91.1507 L85.2194,91.1507 C90.2305333,91.1507 93.8947667,89.8298667 96.2121,87.1882 C98.5294333,84.54656 100.0701,80.74733 100.8341,75.79051 L107.7321,30.1962 L10.8097,30.1962 L17.7502,75.79051 C18.5204667,80.7658233 20.0626,84.5696767 22.3766,87.20207 C24.6906,89.83449 28.3563667,91.1507 33.3739,91.1507 Z M8.5916,23.0761 L110.0031,23.0761 C112.794433,23.0761 114.922433,22.2909 116.3871,20.7205 C117.851767,19.1501667 118.5841,16.9420333 118.5841,14.0961 L118.5841,8.98 C118.5841,6.1626 117.851767,3.96156667 116.3871,2.3769 C114.922433,0.7923 112.794433,0 110.0031,0 L8.5916,0 C5.92073333,0 3.8211,0.7923 2.2927,2.3769 C0.764233333,3.96156667 -8.8817842e-15,6.1626 -8.8817842e-15,8.98 L-8.8817842e-15,14.0961 C-8.8817842e-15,16.9420333 0.7357,19.1501667 2.2071,20.7205 C3.6785,22.2909 5.80666667,23.0761 8.5916,23.0761 Z" id="Shape"></path>
                    </g>
                    <g id="Regular-M" transform="translate(906.945900, 423.197800)">
                        <path d="M32.4271,89.90997 L83.6975,89.90997 C88.4892333,89.90997 91.9827667,88.67147 94.1781,86.19447 C96.3741,83.71747 97.8307667,80.1077367 98.5481,75.36527 L105.4811,28.8798 L10.5812,28.8798 L17.5651,75.36527 C18.2901,80.13043 19.7485667,83.7458367 21.9405,86.21149 C24.1324333,88.6771433 27.6279667,89.90997 32.4271,89.90997 Z M8.286,22.2142 L107.8271,22.2142 C110.575767,22.2142 112.6441,21.4448667 114.0321,19.9062 C115.419433,18.3675333 116.1131,16.2200667 116.1131,13.4638 L116.1131,8.7504 C116.1131,6.02806667 115.419433,3.8891 114.0321,2.3335 C112.6441,0.777833333 110.575767,0 107.8271,0 L8.286,0 C5.6732,0 3.639,0.777833333 2.1834,2.3335 C0.7278,3.8891 5.32907052e-15,6.02806667 5.32907052e-15,8.7504 L5.32907052e-15,13.4638 C5.32907052e-15,16.2200667 0.693833333,18.3675333 2.0815,19.9062 C3.4691,21.4448667 5.53726667,22.2142 8.286,22.2142 Z" id="Shape"></path>
                    </g>
                    <g id="Light-M" transform="translate(610.245900, 423.970600)">
                        <path d="M32.7767,88.40121 L83.3296,88.40121 C87.8759333,88.40121 91.2254333,87.2087067 93.3781,84.8237 C95.5307667,82.4387 96.9414333,79.00376 97.6101,74.51888 L104.6711,27.5183 L11.3724,27.5183 L18.4667,74.51888 C19.1548333,79.0632467 20.5703667,82.51306 22.7133,84.86832 C24.8561667,87.22358 28.2106333,88.40121 32.7767,88.40121 Z M7.6788,21.8645 L108.3981,21.8645 C110.888767,21.8645 112.7911,21.1442667 114.1051,19.7038 C115.4191,18.2632667 116.0761,16.2875333 116.0761,13.7766 L116.0761,8.088 C116.0761,5.59873333 115.4191,3.62843333 114.1051,2.1771 C112.7911,0.7257 110.888767,0 108.3981,0 L7.6788,0 C5.27453333,0 3.39366667,0.7257 2.0362,2.1771 C0.678733333,3.62843333 -8.8817842e-15,5.59873333 -8.8817842e-15,8.088 L-8.8817842e-15,13.7766 C-8.8817842e-15,16.2875333 0.657033333,18.2632667 1.9711,19.7038 C3.2851,21.1442667 5.18766667,21.8645 7.6788,21.8645 Z" id="Shape"></path>
                    </g>
                    <g id="Thin-M" transform="translate(313.559900, 424.992600)">
                        <path d="M33.2391,86.40584 L82.8429,86.40584 C87.0643667,86.40584 90.2231,85.2741733 92.3191,83.01084 C94.4157667,80.7475067 95.7657667,77.54374 96.3691,73.39954 L103.6011,25.7176 L12.4188,25.7176 L19.6591,73.39954 C20.2985667,77.6519 21.6573,80.8827067 23.7353,83.09196 C25.8133,85.3012133 28.9812333,86.40584 33.2391,86.40584 Z M6.8758,21.4022 L109.1521,21.4022 C111.302767,21.4022 112.986433,20.7468333 114.2031,19.4361 C115.419767,18.1253667 116.0281,16.3767667 116.0281,14.1903 L116.0281,7.212 C116.0281,5.031 115.419767,3.28376667 114.2031,1.9703 C112.986433,0.656766667 111.302767,0 109.1521,0 L6.8758,0 C4.74726667,0 3.06916667,0.656766667 1.8415,1.9703 C0.613833333,3.28376667 -8.8817842e-15,5.031 -8.8817842e-15,7.212 L-8.8817842e-15,14.1903 C-8.8817842e-15,16.3767667 0.608366667,18.1253667 1.8251,19.4361 C3.04176667,20.7468333 4.72533333,21.4022 6.8758,21.4022 Z" id="Shape"></path>
                    </g>
                    <g id="Ultralight-M" transform="translate(16.859900, 425.516100)">
                        <path d="M33.4759,85.38379 L82.5936,85.38379 C86.6492667,85.38379 89.7104333,84.2832833 91.7771,82.08227 C93.8444333,79.8812553 95.1631,76.795892 95.7331,72.82618 L103.0521,24.7952 L12.9547,24.7952 L20.2698,72.82618 C20.8843333,76.9289733 22.214,80.0476067 24.2588,82.18208 C26.3035333,84.3165533 29.3759,85.38379 33.4759,85.38379 Z M6.4645,21.1654 L109.5381,21.1654 C111.5141,21.1654 113.085767,20.5432667 114.2531,19.299 C115.419767,18.0547333 116.0031,16.4224333 116.0031,14.4021 L116.0031,6.7633 C116.0031,4.74016667 115.419767,3.10716667 114.2531,1.8643 C113.085767,0.621433333 111.5141,0 109.5381,0 L6.4645,0 C4.47723333,0 2.903,0.621433333 1.7418,1.8643 C0.5806,3.10716667 5.32907052e-15,4.74016667 5.32907052e-15,6.7633 L5.32907052e-15,14.4021 C5.32907052e-15,16.4224333 0.583433333,18.0547333 1.7503,19.299 C2.91716667,20.5432667 4.48856667,21.1654 6.4645,21.1654 Z" id="Shape"></path>
                    </g>
                    <g id="Black-S" transform="translate(2397.190620, 0.000000)">
                        <path d="M29.93168,76.26949 L72.80278,76.26949 C77.5879133,76.26949 81.1279467,74.91044 83.42288,72.19234 C85.7178133,69.47424 87.25588,65.75516 88.03708,61.0351 L93.31038,28.8086 L9.42388,28.8086 L14.69728,61.0351 C15.4785467,65.75516 17.0166133,69.47424 19.31148,72.19234 C21.6064133,74.91044 25.14648,76.26949 29.93168,76.26949 Z M7.91018,21.4843 L94.87338,21.4843 C97.2167133,21.4843 99.1127133,20.8088667 100.56138,19.458 C102.010047,18.1070667 102.73438,16.1458 102.73438,13.5742 L102.73438,7.9101 C102.73438,5.3385 102.010047,3.37723333 100.56138,2.0263 C99.1127133,0.675433333 97.2167133,0 94.87338,0 L7.91018,0 C5.59898,0 3.70281333,0.675433333 2.22168,2.0263 C0.74056,3.37723333 0,5.3385 0,7.9101 L0,13.5742 C0,16.1458 0.74056,18.1070667 2.22168,19.458 C3.70281333,20.8088667 5.59898,21.4843 7.91018,21.4843 Z" id="Shape"></path>
                    </g>
                    <g id="Heavy-S" transform="translate(2101.860620, 0.599200)">
                        <path d="M28.82528,75.07102 L71.14318,75.07102 C75.7132467,75.07102 79.0804467,73.7984033 81.24478,71.25317 C83.4090467,68.7079367 84.8587467,65.1790133 85.59388,60.6664 L90.89038,27.5064 L9.06658,27.5064 L14.37458,60.6664 C15.1097133,65.1790133 16.5594467,68.7079367 18.72378,71.25317 C20.8881133,73.7984033 24.25528,75.07102 28.82528,75.07102 Z M7.64508,20.5624 L92.36038,20.5624 C94.6890467,20.5624 96.53938,19.8985 97.91138,18.5707 C99.2827133,17.2428333 99.96838,15.3276667 99.96838,12.8252 L99.96838,7.7373 C99.96838,5.2425 99.2827133,3.32926667 97.91138,1.9976 C96.53938,0.665866667 94.6890467,0 92.36038,0 L7.64508,0 C5.37228,0 3.52991333,0.665866667 2.11798,1.9976 C0.705993333,3.32926667 1.77635684e-15,5.2425 1.77635684e-15,7.7373 L1.77635684e-15,12.8252 C1.77635684e-15,15.3276667 0.698293333,17.2428333 2.09488,18.5707 C3.49148,19.8985 5.34154667,20.5624 7.64508,20.5624 Z" id="Shape"></path>
                    </g>
                    <g id="Bold-S" transform="translate(1806.690620, 1.269500)">
                        <path d="M27.58788,73.73046 L69.28708,73.73046 C73.6165467,73.73046 76.79038,72.5545133 78.80858,70.20262 C80.8268467,67.8507333 82.17778,64.5344933 82.86138,60.2539 L88.18358,26.0498 L8.66698,26.0498 L14.01368,60.2539 C14.69728,64.5344933 16.04818,67.8507333 18.06638,70.20262 C20.0846467,72.5545133 23.25848,73.73046 27.58788,73.73046 Z M7.34868,19.5312 L89.55078,19.5312 C91.8618467,19.5312 93.66038,18.8801667 94.94638,17.5781 C96.23238,16.2760333 96.87538,14.4124333 96.87538,11.9873 L96.87538,7.5439 C96.87538,5.1351 96.23238,3.27556667 94.94638,1.9653 C93.66038,0.6551 91.8618467,0 89.55078,0 L7.34868,0 C5.11881333,0 3.33658,0.6551 2.00198,1.9653 C0.667326667,3.27556667 1.77635684e-15,5.1351 1.77635684e-15,7.5439 L1.77635684e-15,11.9873 C1.77635684e-15,14.4124333 0.65106,16.2760333 1.95318,17.5781 C3.25524667,18.8801667 5.05374667,19.5312 7.34868,19.5312 Z" id="Shape"></path>
                    </g>
                    <g id="Semibold-S" transform="translate(1511.050620, 1.731600)">
                        <path d="M26.73478,72.80625 L68.00738,72.80625 C72.17098,72.80625 75.2115133,71.6969567 77.12898,69.47837 C79.0465133,67.2597833 80.3293133,64.09016 80.97738,59.9695 L86.31738,25.0456 L8.39148,25.0456 L13.76488,59.9695 C14.41288,64.09016 15.6956467,67.2597833 17.61318,69.47837 C19.5307133,71.6969567 22.5712467,72.80625 26.73478,72.80625 Z M7.14428,18.8203 L87.61348,18.8203 C89.9127467,18.8203 91.6757133,18.1781333 92.90238,16.8938 C94.1290467,15.6095333 94.74238,13.7815 94.74238,11.4097 L94.74238,7.4106 C94.74238,5.061 94.1290467,3.2385 92.90238,1.9431 C91.6757133,0.6477 89.9127467,0 87.61348,0 L7.14428,0 C4.94408,0 3.20331333,0.6477 1.92198,1.9431 C0.64066,3.2385 1.77635684e-15,5.061 1.77635684e-15,7.4106 L1.77635684e-15,11.4097 C1.77635684e-15,13.7815 0.61846,15.6095333 1.85538,16.8938 C3.09231333,18.1781333 4.85528,18.8203 7.14428,18.8203 Z" id="Shape"></path>
                    </g>
                    <g id="Medium-S" transform="translate(1215.150620, 2.082000)">
                        <path d="M26.08788,72.105456 L67.03708,72.105456 C71.07488,72.105456 74.0143467,71.0467007 75.85548,68.92919 C77.6966133,66.8116767 78.9277467,63.7532467 79.54888,59.7539 L84.90238,24.2842 L8.18258,24.2842 L13.57618,59.7539 C14.1972467,63.7532467 15.42838,66.8116767 17.26958,68.92919 C19.1107133,71.0467007 22.0501467,72.105456 26.08788,72.105456 Z M6.98928,18.2812 L86.14458,18.2812 C88.4349133,18.2812 90.1708467,17.6458 91.35238,16.375 C92.53438,15.1041333 93.12538,13.3030333 93.12538,10.9717 L93.12538,7.3096 C93.12538,5.00486667 92.53438,3.21043333 91.35238,1.9263 C90.1708467,0.6421 88.4349133,0 86.14458,0 L6.98928,0 C4.81154667,0 3.10224667,0.6421 1.86138,1.9263 C0.62046,3.21043333 1.77635684e-15,5.00486667 1.77635684e-15,7.3096 L1.77635684e-15,10.9717 C1.77635684e-15,13.3030333 0.59376,15.1041333 1.78128,16.375 C2.96874667,17.6458 4.70474667,18.2812 6.98928,18.2812 Z" id="Shape"></path>
                    </g>
                    <g id="Regular-S" transform="translate(919.490620, 2.539000)">
                        <path d="M25.24418,71.191425 L65.77148,71.191425 C69.6452133,71.191425 72.4528467,70.1985867 74.19438,68.21291 C75.9359133,66.22723 77.0996467,63.3138267 77.68558,59.4727 L83.05668,23.291 L7.91018,23.291 L13.33008,59.4727 C13.9160133,63.3138267 15.0797467,66.22723 16.82128,68.21291 C18.5628133,70.1985867 21.3704467,71.191425 25.24418,71.191425 Z M6.78708,17.5781 L84.22848,17.5781 C86.5071467,17.5781 88.2080133,16.9515 89.33108,15.6983 C90.4539467,14.4450333 91.01538,12.6790667 91.01538,10.4004 L91.01538,7.1778 C91.01538,4.93166667 90.4539467,3.17383333 89.33108,1.9043 C88.2080133,0.634766667 86.5071467,0 84.22848,0 L6.78708,0 C4.63868,0 2.97041333,0.634766667 1.78228,1.9043 C0.594093333,3.17383333 0,4.93166667 0,7.1778 L0,10.4004 C0,12.6790667 0.561526667,14.4450333 1.68458,15.6983 C2.80764667,16.9515 4.50848,17.5781 6.78708,17.5781 Z" id="Shape"></path>
                    </g>
                    <g id="Light-S" transform="translate(622.800620, 3.222600)">
                        <path d="M25.55338,69.856783 L65.44598,69.856783 C69.1026467,69.856783 71.78278,68.9046353 73.48638,67.00034 C75.1899133,65.09604 76.3129467,62.33726 76.85548,58.724 L82.34048,22.0866 L8.61008,22.0866 L14.12758,58.724 C14.68098,62.3698133 15.8067467,65.13673 17.50488,67.02475 C19.2030133,68.912772 21.8858467,69.856783 25.55338,69.856783 Z M6.24998,17.2689 L84.73308,17.2689 C86.78388,17.2689 88.3382467,16.6856667 89.39618,15.5192 C90.4543133,14.3527333 90.98338,12.7387 90.98338,10.6771 L90.98338,6.5918 C90.98338,4.55186667 90.4543133,2.94326667 89.39618,1.766 C88.3382467,0.588666667 86.78388,0 84.73308,0 L6.24998,0 C4.28604667,0 2.75338,0.588666667 1.65198,1.766 C0.55066,2.94326667 0,4.55186667 0,6.5918 L0,10.6771 C0,12.7387 0.52896,14.3527333 1.58688,15.5192 C2.64488,16.6856667 4.19924667,17.2689 6.24998,17.2689 Z" id="Shape"></path>
                    </g>
                    <g id="Thin-S" transform="translate(326.104620, 4.126700)">
                        <path d="M25.96238,68.09163 L65.01548,68.09163 C68.3851467,68.09163 70.8966467,67.1932967 72.54998,65.39663 C74.2033133,63.5999633 75.2725133,61.0456867 75.75758,57.7338 L81.39338,20.4937 L9.53568,20.4937 L15.18238,57.7338 C15.6927133,61.1212933 16.7682467,63.69447 18.40898,65.45333 C20.0497133,67.2121967 22.5675133,68.09163 25.96238,68.09163 Z M5.53968,16.8599 L85.40038,16.8599 C87.14978,16.8599 88.5104133,16.3340667 89.48228,15.2824 C90.4543467,14.2308 90.94038,12.8177 90.94038,11.0431 L90.94038,5.8169 C90.94038,4.04963333 90.4543467,2.63833333 89.48228,1.583 C88.5104133,0.527666667 87.14978,0 85.40038,0 L5.53968,0 C3.81961333,0 2.46631333,0.527666667 1.47978,1.583 C0.49326,2.63833333 1.77635684e-15,4.04963333 1.77635684e-15,5.8169 L1.77635684e-15,11.0431 C1.77635684e-15,12.8177 0.485926667,14.2308 1.45778,15.2824 C2.42958,16.3340667 3.79021333,16.8599 5.53968,16.8599 Z" id="Shape"></path>
                    </g>
                    <g id="Ultralight-S" transform="translate(29.403620, 4.589800)">
                        <path d="M26.17188,67.1875 L64.79488,67.1875 C68.0175467,67.1875 70.44268,66.3167333 72.07028,64.5752 C73.69788,62.83366 74.7395467,60.3841267 75.19528,57.2266 L80.90818,19.6777 L10.00978,19.6777 L15.72268,57.2266 C16.2109467,60.4817867 17.2607467,62.9557333 18.87208,64.64844 C20.4834133,66.3411467 22.91668,67.1875 26.17188,67.1875 Z M5.17578,16.6504 L85.74218,16.6504 C87.3372467,16.6504 88.5986467,16.1539667 89.52638,15.1611 C90.45438,14.1683 90.91838,12.8581 90.91838,11.2305 L90.91838,5.4199 C90.91838,3.7923 90.45438,2.4821 89.52638,1.4893 C88.5986467,0.496433333 87.3372467,0 85.74218,0 L5.17578,0 C3.58071333,0 2.31931333,0.496433333 1.39158,1.4893 C0.46386,2.4821 1.77635684e-15,3.7923 1.77635684e-15,5.4199 L1.77635684e-15,11.2305 C1.77635684e-15,12.8581 0.46386,14.1683 1.39158,15.1611 C2.31931333,16.1539667 3.58071333,16.6504 5.17578,16.6504 Z" id="Shape"></path>
                    </g>
                </g>
            </g>
        </g>
    </g>
</svg>